<svg xmlns="http://www.w3.org/2000/svg" xmlns:xlink="http://www.w3.org/1999/xlink" width="167" height="110" viewBox="0 0 167 110">
  <defs>
    <clipPath id="clip-path">
      <rect id="Rectangle_4371" data-name="Rectangle 4371" width="167" height="110" transform="translate(0 -10)" fill="#505e69"/>
    </clipPath>
  </defs>
  <g id="Dots-Top" transform="translate(0 10)" opacity="0.326" clip-path="url(#clip-path)">
    <path id="Path_11197" data-name="Path 11197" d="M15.62,69.051h0l0,0a2.906,2.906,0,0,1,0-4.232,2.874,2.874,0,0,1,4.205-.028,2.906,2.906,0,0,1,0,4.235,2.874,2.874,0,0,1-4.2.03Z" fill="#505e69"/>
    <path id="Path_11198" data-name="Path 11198" d="M34.4,79.534a2.929,2.929,0,0,1,.065,4.232,2.875,2.875,0,0,1-4.205.066,2.929,2.929,0,0,1-.065-4.232A2.874,2.874,0,0,1,34.4,79.534Z" fill="#505e69"/>
    <path id="Path_11199" data-name="Path 11199" d="M44.809,98.542a2.928,2.928,0,0,1,.037-4.232,2.874,2.874,0,0,1,4.205.038,2.906,2.906,0,0,1-.065,4.232A2.843,2.843,0,0,1,44.809,98.542Z" fill="#505e69"/>
    <path id="Path_11200" data-name="Path 11200" d="M30.2,69.047h0l0,0a2.928,2.928,0,0,1,.032-4.227,2.852,2.852,0,0,1,4.21.005,2.928,2.928,0,0,1-.035,4.229A2.874,2.874,0,0,1,30.2,69.047Z" fill="#505e69"/>
    <path id="Path_11201" data-name="Path 11201" d="M44.679,79.7h0a2.885,2.885,0,0,1,4.206-.288,2.939,2.939,0,0,1,.284,4.231,2.883,2.883,0,0,1-4.2.291A2.936,2.936,0,0,1,44.679,79.7Z" fill="#505e69"/>
    <path id="Path_11202" data-name="Path 11202" d="M59.5,98.641h0a2.932,2.932,0,0,1-.158-4.231h0a2.878,2.878,0,0,1,4.2-.16h0a2.932,2.932,0,0,1,.158,4.231h0A2.878,2.878,0,0,1,59.5,98.641Z" fill="#505e69"/>
    <path id="Path_11203" data-name="Path 11203" d="M49.017,64.782h0l0,0a2.906,2.906,0,0,1,0,4.235,2.852,2.852,0,0,1-4.2,0,2.983,2.983,0,0,1,4.2-4.237Z" fill="#505e69"/>
    <path id="Path_11204" data-name="Path 11204" d="M63.585,83.865h0a2.984,2.984,0,0,1-4.1-4.333,2.853,2.853,0,0,1,4.208.1A2.906,2.906,0,0,1,63.585,83.865Z" fill="#505e69"/>
    <path id="Path_11205" data-name="Path 11205" d="M74.042,98.608a2.993,2.993,0,1,1,4.233-.066h0l0,0A2.906,2.906,0,0,1,74.042,98.608Z" fill="#505e69"/>
    <path id="Path_11206" data-name="Path 11206" d="M63.546,64.721h0a2.932,2.932,0,0,1,.158,4.232h0a2.878,2.878,0,0,1-4.2.16h0a2.932,2.932,0,0,1-.16-4.229A2.877,2.877,0,0,1,63.546,64.721Z" fill="#505e69"/>
    <path id="Path_11207" data-name="Path 11207" d="M74.084,83.865h0l-.005,0a2.994,2.994,0,1,1,4.233-.094h0l0,0A2.93,2.93,0,0,1,74.084,83.865Z" fill="#505e69"/>
    <path id="Path_11208" data-name="Path 11208" d="M73.984,69.019h0l0,0a2.929,2.929,0,0,1,.065-4.232,2.874,2.874,0,0,1,4.205.066,2.929,2.929,0,0,1-.063,4.23A2.875,2.875,0,0,1,73.984,69.019Z" fill="#505e69"/>
    <path id="Path_11209" data-name="Path 11209" d="M5.255,94.36a2.929,2.929,0,0,1-.065,4.232,2.874,2.874,0,0,1-4.205-.066,2.929,2.929,0,0,1,.065-4.232A2.875,2.875,0,0,1,5.255,94.36Z" fill="#505e69"/>
    <path id="Path_11210" data-name="Path 11210" d="M5.2,79.536a2.928,2.928,0,0,1,.037,4.227,2.853,2.853,0,0,1-4.208.068A2.906,2.906,0,0,1,1,79.595,2.875,2.875,0,0,1,5.2,79.536Z" fill="#505e69"/>
    <path id="Path_11211" data-name="Path 11211" d="M19.842,98.515h0a3.006,3.006,0,0,1-2.109.968,2.843,2.843,0,0,1-2.1-.908,2.906,2.906,0,0,1-.03-4.23,2.874,2.874,0,0,1,4.2-.063A2.928,2.928,0,0,1,19.842,98.515Z" fill="#505e69"/>
    <path id="Path_11212" data-name="Path 11212" d="M5.238,69.014h0l0,0a3,3,0,0,1-2.1.939,2.91,2.91,0,0,1-2.106-.909A2.929,2.929,0,0,1,1,64.817,2.874,2.874,0,0,1,5.2,64.784,2.928,2.928,0,0,1,5.238,69.014Z" fill="#505e69"/>
    <path id="Path_11213" data-name="Path 11213" d="M19.759,79.473h0a2.932,2.932,0,0,1,.16,4.229,2.888,2.888,0,0,1-4.23.194h0l-.005,0a2.932,2.932,0,0,1-.16-4.229A2.889,2.889,0,0,1,19.759,79.473Z" fill="#505e69"/>
    <path id="Path_11214" data-name="Path 11214" d="M34.475,98.543h0l0,0a2.993,2.993,0,1,1-.06-4.237A2.906,2.906,0,0,1,34.47,98.547Z" fill="#505e69"/>
    <path id="Path_11215" data-name="Path 11215" d="M88.618,69.051h0l0,0a2.905,2.905,0,0,1,0-4.232,2.874,2.874,0,0,1,4.205-.028,2.906,2.906,0,0,1,0,4.235,2.874,2.874,0,0,1-4.2.03Z" fill="#505e69"/>
    <path id="Path_11216" data-name="Path 11216" d="M107.419,79.534a2.929,2.929,0,0,1,.065,4.232,2.874,2.874,0,0,1-4.205.066,2.93,2.93,0,0,1-.063-4.234A2.874,2.874,0,0,1,107.419,79.534Z" fill="#505e69"/>
    <path id="Path_11217" data-name="Path 11217" d="M117.835,98.547h0l0-.005a2.928,2.928,0,0,1,.037-4.232,2.875,2.875,0,0,1,4.206.038,2.906,2.906,0,0,1-.063,4.229A2.842,2.842,0,0,1,117.835,98.547Z" fill="#505e69"/>
    <path id="Path_11218" data-name="Path 11218" d="M103.2,69.047h0l0,0a2.93,2.93,0,0,1,.035-4.23,2.852,2.852,0,0,1,4.208.007,2.928,2.928,0,0,1-.035,4.229A2.874,2.874,0,0,1,103.2,69.047Z" fill="#505e69"/>
    <path id="Path_11219" data-name="Path 11219" d="M117.7,79.7h0a2.884,2.884,0,0,1,4.206-.288,2.939,2.939,0,0,1,.284,4.231,2.884,2.884,0,0,1-4.2.291A2.938,2.938,0,0,1,117.7,79.7Z" fill="#505e69"/>
    <path id="Path_11220" data-name="Path 11220" d="M132.517,98.641h0a2.932,2.932,0,0,1-.157-4.231h0a2.878,2.878,0,0,1,4.205-.16h0a2.932,2.932,0,0,1,.158,4.231h0A2.876,2.876,0,0,1,132.517,98.641Z" fill="#505e69"/>
    <path id="Path_11221" data-name="Path 11221" d="M122.021,64.787a2.905,2.905,0,0,1,0,4.235,2.852,2.852,0,0,1-4.2,0,2.983,2.983,0,0,1,4.208-4.23Z" fill="#505e69"/>
    <path id="Path_11222" data-name="Path 11222" d="M136.6,83.865h0a2.984,2.984,0,0,1-4.1-4.333,2.853,2.853,0,0,1,4.208.1A2.907,2.907,0,0,1,136.6,83.865Z" fill="#505e69"/>
    <path id="Path_11223" data-name="Path 11223" d="M151.3,98.543h0l-.005,0a2.921,2.921,0,1,1,.005,0Z" fill="#505e69"/>
    <path id="Path_11224" data-name="Path 11224" d="M136.544,64.721h0a2.931,2.931,0,0,1,.158,4.231h0a2.878,2.878,0,0,1-4.205.16h0a2.931,2.931,0,0,1-.16-4.229A2.876,2.876,0,0,1,136.544,64.721Z" fill="#505e69"/>
    <path id="Path_11225" data-name="Path 11225" d="M147.1,83.865h0l0,0a2.994,2.994,0,1,1,4.233-.094h0l0,0A2.93,2.93,0,0,1,147.1,83.865Z" fill="#505e69"/>
    <path id="Path_11226" data-name="Path 11226" d="M146.978,69.014a2.929,2.929,0,0,1,.065-4.232,2.874,2.874,0,0,1,4.205.066,2.929,2.929,0,0,1-.065,4.232l-.35-.357.35.357A2.874,2.874,0,0,1,146.978,69.014Z" fill="#505e69"/>
    <path id="Path_11227" data-name="Path 11227" d="M92.863,98.515h0a2.99,2.99,0,0,1-2.1.968,3.012,3.012,0,1,1,2.062-5.2A2.928,2.928,0,0,1,92.863,98.515Z" fill="#505e69"/>
    <path id="Path_11228" data-name="Path 11228" d="M92.78,79.473h0a2.932,2.932,0,0,1,.158,4.232h0a2.877,2.877,0,0,1-4.2.16h0a2.932,2.932,0,0,1-.16-4.229A2.877,2.877,0,0,1,92.78,79.473Z" fill="#505e69"/>
    <path id="Path_11229" data-name="Path 11229" d="M107.5,98.543h0l-.01.009a2.9,2.9,0,1,1,.01-.01Z" fill="#505e69"/>
    <path id="Path_11230" data-name="Path 11230" d="M44.825,39.522a2.883,2.883,0,0,0,4.231.007Zm0,0a2.993,2.993,0,1,1,4.231.007Z" fill="#505e69"/>
    <path id="Path_11231" data-name="Path 11231" d="M63.731,54.236h0l0,0a3.081,3.081,0,0,1-2.116.967,3.042,3.042,0,1,1,2.12-.972Z" fill="#505e69"/>
    <path id="Path_11232" data-name="Path 11232" d="M34.371,5.745a2.928,2.928,0,0,1,.065,4.232,2.875,2.875,0,0,1-4.205.066,2.929,2.929,0,0,1-.065-4.232A2.874,2.874,0,0,1,34.371,5.745Z" fill="#505e69"/>
    <path id="Path_11233" data-name="Path 11233" d="M44.82,24.749a2.928,2.928,0,0,1,.037-4.232,2.874,2.874,0,0,1,4.205.038A2.906,2.906,0,0,1,49,24.785,2.821,2.821,0,0,1,44.82,24.749Z" fill="#505e69"/>
    <path id="Path_11234" data-name="Path 11234" d="M59.537,39.618h0a2.932,2.932,0,0,1-.158-4.231h0a2.91,2.91,0,0,1,4.233-.16h0a2.932,2.932,0,0,1,.158,4.231h0l-.005.005A2.91,2.91,0,0,1,59.537,39.618Z" fill="#505e69"/>
    <path id="Path_11235" data-name="Path 11235" d="M78.336,54.264h0l0,0a2.993,2.993,0,1,1-.06-4.237A2.906,2.906,0,0,1,78.332,54.269Z" fill="#505e69"/>
    <path id="Path_11236" data-name="Path 11236" d="M44.652,5.938h0a2.885,2.885,0,0,1,4.207-.288,2.939,2.939,0,0,1,.284,4.231,2.883,2.883,0,0,1-4.2.289h0A2.937,2.937,0,0,1,44.652,5.938Z" fill="#505e69"/>
    <path id="Path_11237" data-name="Path 11237" d="M59.348,20.616h0a2.878,2.878,0,0,1,4.2-.16h0a2.932,2.932,0,0,1,.158,4.232h0a2.855,2.855,0,0,1-4.208.157A2.931,2.931,0,0,1,59.348,20.616Z" fill="#505e69"/>
    <path id="Path_11238" data-name="Path 11238" d="M74.046,39.492h0a2.929,2.929,0,0,1,.065-4.232,2.874,2.874,0,0,1,4.205.066,2.928,2.928,0,0,1-.063,4.229A2.853,2.853,0,0,1,74.046,39.492Z" fill="#505e69"/>
    <path id="Path_11239" data-name="Path 11239" d="M59.354,9.974a2.906,2.906,0,0,1,.1-4.232,2.853,2.853,0,0,1,4.208.1,2.906,2.906,0,0,1-.1,4.229A2.853,2.853,0,0,1,59.354,9.974Z" fill="#505e69"/>
    <path id="Path_11240" data-name="Path 11240" d="M78.286,24.749h0l0,0A2.993,2.993,0,0,1,73.99,20.58a2.993,2.993,0,0,1,4.3,4.169Z" fill="#505e69"/>
    <path id="Path_11241" data-name="Path 11241" d="M78.285,9.977h0l0,0a2.907,2.907,0,0,1-4.228.089,2.93,2.93,0,0,1-.09-4.235,2.907,2.907,0,0,1,4.231-.091A2.93,2.93,0,0,1,78.285,9.977Z" fill="#505e69"/>
    <path id="Path_11242" data-name="Path 11242" d="M.966,50.1a2.854,2.854,0,0,1,4.208-.091,2.929,2.929,0,0,1,.093,4.227,2.853,2.853,0,0,1-4.208.1A2.93,2.93,0,0,1,.966,50.1Z" fill="#505e69"/>
    <path id="Path_11243" data-name="Path 11243" d="M5.237,35.3a2.928,2.928,0,0,1-.035,4.23A2.852,2.852,0,0,1,.994,39.52a2.952,2.952,0,0,1,0-4.227A2.884,2.884,0,0,1,5.237,35.3Z" fill="#505e69"/>
    <path id="Path_11244" data-name="Path 11244" d="M19.992,54.131l0,.006-.005.006a2.917,2.917,0,0,1-4.227.286h0a2.939,2.939,0,0,1-.286-4.233,2.885,2.885,0,0,1,4.2-.291A2.939,2.939,0,0,1,19.992,54.131Z" fill="#505e69"/>
    <path id="Path_11245" data-name="Path 11245" d="M5.268,20.585a2.929,2.929,0,0,1-.067,4.23,2.874,2.874,0,0,1-4.205-.066,2.929,2.929,0,0,1,.065-4.232A2.853,2.853,0,0,1,5.268,20.585Z" fill="#505e69"/>
    <path id="Path_11246" data-name="Path 11246" d="M15.572,35.326l.36.347-.36-.347a2.875,2.875,0,0,1,4.208-.063,2.928,2.928,0,0,1,.063,4.229,2.875,2.875,0,0,1-4.205.066A2.929,2.929,0,0,1,15.572,35.326Z" fill="#505e69"/>
    <path id="Path_11247" data-name="Path 11247" d="M34.445,54.264h0l0,0a3,3,0,0,1-2.1.939A3.042,3.042,0,0,1,30.2,50.068a2.874,2.874,0,0,1,4.205-.033A2.928,2.928,0,0,1,34.445,54.264Z" fill="#505e69"/>
    <path id="Path_11248" data-name="Path 11248" d="M1,5.806a2.875,2.875,0,0,1,4.2-.058A2.928,2.928,0,0,1,5.24,9.974a2.937,2.937,0,0,1-2.091.971A2.909,2.909,0,0,1,1.03,10.04,2.906,2.906,0,0,1,1,5.806Z" fill="#505e69"/>
    <path id="Path_11249" data-name="Path 11249" d="M19.853,24.749h0l0,0a3,3,0,0,1-2.1.939,3.042,3.042,0,0,1-2.139-5.141,2.874,2.874,0,0,1,4.2-.035A2.928,2.928,0,0,1,19.853,24.749Z" fill="#505e69"/>
    <path id="Path_11250" data-name="Path 11250" d="M30.276,39.618h0a2.932,2.932,0,0,1-.158-4.231h0a2.91,2.91,0,0,1,4.233-.16h0a2.932,2.932,0,0,1,.158,4.231h0l0,.005A2.91,2.91,0,0,1,30.276,39.618Z" fill="#505e69"/>
    <path id="Path_11251" data-name="Path 11251" d="M44.827,54.3h0l0,0a2.993,2.993,0,1,1,4.228,0h0l0,0a3.061,3.061,0,0,1-2.117.895A2.989,2.989,0,0,1,44.827,54.3Z" fill="#505e69"/>
    <path id="Path_11252" data-name="Path 11252" d="M19.726,5.679h0l.005.005a2.932,2.932,0,0,1,.158,4.231h0a2.878,2.878,0,0,1-4.2.16h0a2.932,2.932,0,0,1-.158-4.231A2.923,2.923,0,0,1,19.726,5.679Z" fill="#505e69"/>
    <path id="Path_11253" data-name="Path 11253" d="M34.486,24.749h0l0,0A2.993,2.993,0,0,1,30.19,20.58a2.993,2.993,0,0,1,4.3,4.169Z" fill="#505e69"/>
    <path id="Path_11254" data-name="Path 11254" d="M117.893,39.525a2.993,2.993,0,1,1,4.231,0A2.905,2.905,0,0,1,117.893,39.525Z" fill="#505e69"/>
    <path id="Path_11255" data-name="Path 11255" d="M136.8,54.236h0a2.885,2.885,0,0,1-4.233.094,2.994,2.994,0,1,1,4.233-.094Z" fill="#505e69"/>
    <path id="Path_11256" data-name="Path 11256" d="M107.392,5.745a2.929,2.929,0,0,1,.065,4.232,2.875,2.875,0,0,1-4.206.066,2.929,2.929,0,0,1-.062-4.234A2.875,2.875,0,0,1,107.392,5.745Z" fill="#505e69"/>
    <path id="Path_11257" data-name="Path 11257" d="M117.845,24.754h0l-.005,0a2.929,2.929,0,0,1,.037-4.232,2.875,2.875,0,0,1,4.206.038,2.906,2.906,0,0,1-.06,4.227A2.821,2.821,0,0,1,117.845,24.754Z" fill="#505e69"/>
    <path id="Path_11258" data-name="Path 11258" d="M132.6,39.618h0a2.932,2.932,0,0,1-.158-4.231h0a2.909,2.909,0,0,1,4.232-.159h0a2.931,2.931,0,0,1,.158,4.231h0l-.005.005A2.909,2.909,0,0,1,132.6,39.618Z" fill="#505e69"/>
    <path id="Path_11259" data-name="Path 11259" d="M151.408,54.264h0l-.005,0a2.922,2.922,0,1,1,.005,0Z" fill="#505e69"/>
    <path id="Path_11260" data-name="Path 11260" d="M117.672,5.938h0a2.885,2.885,0,0,1,4.206-.288,2.939,2.939,0,0,1,.284,4.231,2.884,2.884,0,0,1-4.2.289h0A2.937,2.937,0,0,1,117.672,5.938Z" fill="#505e69"/>
    <path id="Path_11261" data-name="Path 11261" d="M132.369,20.616h0a2.878,2.878,0,0,1,4.205-.16h0a2.933,2.933,0,0,1,.158,4.232h0a2.856,2.856,0,0,1-4.208.157A2.931,2.931,0,0,1,132.369,20.616Z" fill="#505e69"/>
    <path id="Path_11262" data-name="Path 11262" d="M147.109,39.489a2.928,2.928,0,0,1,.067-4.229,2.875,2.875,0,0,1,4.206.066,2.929,2.929,0,0,1-.065,4.232A2.853,2.853,0,0,1,147.109,39.489Z" fill="#505e69"/>
    <path id="Path_11263" data-name="Path 11263" d="M132.375,9.974a2.906,2.906,0,0,1,.1-4.232,2.853,2.853,0,0,1,4.208.1,2.906,2.906,0,0,1-.1,4.229A2.853,2.853,0,0,1,132.375,9.974Z" fill="#505e69"/>
    <path id="Path_11264" data-name="Path 11264" d="M147.073,24.815a2.993,2.993,0,1,1,4.233-.066h0l-.005,0A2.906,2.906,0,0,1,147.073,24.815Z" fill="#505e69"/>
    <path id="Path_11265" data-name="Path 11265" d="M151.3,9.977h0l0,0a2.907,2.907,0,0,1-4.228.089,2.93,2.93,0,0,1-.091-4.235,2.907,2.907,0,0,1,4.231-.091A2.93,2.93,0,0,1,151.3,9.977Z" fill="#505e69"/>
    <path id="Path_11266" data-name="Path 11266" d="M93.044,54.137h0a2.884,2.884,0,0,1-4.2.291h0a2.939,2.939,0,0,1-.286-4.233,2.885,2.885,0,0,1,4.2-.289A2.936,2.936,0,0,1,93.044,54.137Z" fill="#505e69"/>
    <path id="Path_11267" data-name="Path 11267" d="M88.7,39.557a2.929,2.929,0,0,1-.065-4.232,2.875,2.875,0,0,1,4.208-.063,2.929,2.929,0,0,1,.063,4.23A2.875,2.875,0,0,1,88.7,39.557Z" fill="#505e69"/>
    <path id="Path_11268" data-name="Path 11268" d="M103.309,54.3a2.928,2.928,0,0,1-.033-4.232,2.874,2.874,0,0,1,4.205-.033,2.928,2.928,0,0,1,.035,4.23A2.851,2.851,0,0,1,103.309,54.3Z" fill="#505e69"/>
    <path id="Path_11269" data-name="Path 11269" d="M92.873,24.749h0l0,0a3,3,0,0,1-2.1.939,3.042,3.042,0,0,1-2.136-5.143,2.874,2.874,0,0,1,4.2-.033A2.928,2.928,0,0,1,92.873,24.749Z" fill="#505e69"/>
    <path id="Path_11270" data-name="Path 11270" d="M103.346,39.623h0l0,0a2.932,2.932,0,0,1-.158-4.231h0a2.909,2.909,0,0,1,4.232-.16h0a2.931,2.931,0,0,1,.158,4.231h0l0,.005a3.075,3.075,0,0,1-2.091.989A2.947,2.947,0,0,1,103.346,39.623Z" fill="#505e69"/>
    <path id="Path_11271" data-name="Path 11271" d="M117.9,54.3h0l-.005,0a3.054,3.054,0,1,1,.005,0Z" fill="#505e69"/>
    <path id="Path_11272" data-name="Path 11272" d="M92.747,5.679h0l.005.005a2.932,2.932,0,0,1,.158,4.231h0a2.877,2.877,0,0,1-4.2.159h0a2.932,2.932,0,0,1-.158-4.231A2.923,2.923,0,0,1,92.747,5.679Z" fill="#505e69"/>
    <path id="Path_11273" data-name="Path 11273" d="M107.506,24.749h0l-.01.009a2.993,2.993,0,0,1-4.286-4.178,2.993,2.993,0,0,1,4.3,4.169Z" fill="#505e69"/>
  </g>
</svg>
