<svg xmlns="http://www.w3.org/2000/svg" width="117.61" height="31.293" viewBox="0 0 117.61 31.293">
  <g id="Group_12251" data-name="Group 12251" transform="translate(1452.165 -494.401)">
    <path id="Path_4" data-name="Path 4" d="M-1257.985,504.649c.321-.31.213-.563.214-.8.01-2.805,0-5.611.01-8.416,0-.867.227-1,1.61-1.023,2.789-.041,2.816-.025,2.816,1.768q0,13.8-.014,27.6c0,.452.3,1.041-.489,1.3a7.767,7.767,0,0,1-3.212.078c-.429-.05-.485-.361-.494-.613-.014-.4,0-.8,0-1.215a.776.776,0,0,0-.726.385c-2.322,2.438-7.063,2.442-10.023.721a9.7,9.7,0,0,1-4.268-4.866,14.891,14.891,0,0,1,.054-11.517,8.7,8.7,0,0,1,4.665-4.839,8.913,8.913,0,0,1,9.088.809C-1258.526,504.215-1258.286,504.406-1257.985,504.649Zm.415,9.533a15.356,15.356,0,0,0-.017-2.156,7.21,7.21,0,0,0-2.238-4.768,5.356,5.356,0,0,0-7.08-.042,6.023,6.023,0,0,0-2.013,3.775,14.547,14.547,0,0,0,.394,7.222,5.791,5.791,0,0,0,2.791,3.251,5.268,5.268,0,0,0,5.153-.036,5.624,5.624,0,0,0,2.154-2.2A9.023,9.023,0,0,0-1257.571,514.183Z" transform="translate(-129.919 0)" fill="#01ffb1"/>
    <path id="Path_5" data-name="Path 5" d="M-1347,523.238a4.771,4.771,0,0,0-1.353,1.037c-2.085,1.574-5.642,1.845-8.4.666a9.28,9.28,0,0,1-5.115-5.03,14.057,14.057,0,0,1-.911-9.058,10.8,10.8,0,0,1,3.319-6.237,8.868,8.868,0,0,1,5.855-2.237,7.63,7.63,0,0,1,4.938,1.381c.387.287.787.567,1.2.861.383-.218.221-.48.222-.707.012-2.783.005-5.565.009-8.348,0-1.031.159-1.133,1.731-1.135,2.781,0,2.558-.112,2.558,1.648q0,13.969-.011,27.938c0,.4.31.96-.506,1.133a7.335,7.335,0,0,1-3.109-.021c-.411-.094-.417-.394-.423-.644C-1347.008,524.108-1347,523.73-1347,523.238Zm-11.666-9.1a9.06,9.06,0,0,0,.337,2.882,6.2,6.2,0,0,0,3.047,4.4,5.438,5.438,0,0,0,5.618-.224,5.878,5.878,0,0,0,2.245-3.073,13.621,13.621,0,0,0-.111-8.218,5.331,5.331,0,0,0-2.945-3.405,4.9,4.9,0,0,0-3.724-.349,5.181,5.181,0,0,0-3.335,2.548C-1358.546,510.46-1358.536,512.307-1358.668,514.14Z" transform="translate(-64.809 -0.022)" fill="#01ffb1"/>
    <path id="Path_6" data-name="Path 6" d="M-1167.66,544.171a13.063,13.063,0,0,1-4.321,2.212c-4.663,1.231-9.007.418-10.833-2.66a5.947,5.947,0,0,1,.345-7c1.313-1.81,3.644-2.792,6.659-3.173,1.966-.249,3.93-.5,5.871-.821,1.818-.3,1.989-.406,1.973-1.585a4.988,4.988,0,0,0-.07-1.209c-.307-1.169-1.085-2.1-3.018-2.527a7.969,7.969,0,0,0-5.826.606,3.653,3.653,0,0,0-1.64,2.29c-.382,1.125-.652,1.247-2.332.875-.166-.037-.334-.074-.5-.1-1.749-.268-1.8-.28-1.453-1.442a7.225,7.225,0,0,1,4.161-4.9c3.273-1.525,9.69-1.63,12.618.425a5.049,5.049,0,0,1,2.031,2.621,10.162,10.162,0,0,1,.485,3.207c-.039,3.253.018,6.507-.01,9.76a13.011,13.011,0,0,0,.894,4.929c.256.652.067.816-1.009.818-3.509.007-3.171.188-3.8-1.833A5.084,5.084,0,0,0-1167.66,544.171Zm-.31-6.763c0-.381,0-.762,0-1.142-.005-.325-.091-.517-.746-.335a41.6,41.6,0,0,1-5.542,1.037c-1.825.246-3.687.562-4.429,1.878a2.74,2.74,0,0,0,.385,3.492,3.681,3.681,0,0,0,2.332,1.054c2.832.366,5.672-.592,6.938-2.383A5.946,5.946,0,0,0-1167.97,537.408Z" transform="translate(-195.372 -21.255)" fill="#01ffb1"/>
    <path id="Path_7" data-name="Path 7" d="M-1436.052,544.152a15.873,15.873,0,0,1-2.831,1.692,12.546,12.546,0,0,1-8.989.52,5.514,5.514,0,0,1-3.656-3.172,6.016,6.016,0,0,1,1.334-7.191c1.631-1.636,4.127-2.255,6.976-2.562a37.381,37.381,0,0,0,6.108-1.014c.37-.1.72-.2.71-.511a7.951,7.951,0,0,0-.289-2.672c-.616-1.651-4.2-2.434-6.676-1.925a4.133,4.133,0,0,0-3.581,3.052c-.355,1.089-.568,1.192-2.258.813a3.512,3.512,0,0,0-.814-.131c-1.276.027-1.53-.574-1.343-1.129a8.509,8.509,0,0,1,2.068-3.649c1.885-1.842,4.661-2.57,7.982-2.654a11.432,11.432,0,0,1,6.989,1.641,5.086,5.086,0,0,1,2.188,3.716,71.814,71.814,0,0,1,.185,8.479,30.717,30.717,0,0,0,.415,6.786,11.145,11.145,0,0,0,.559,1.5c.2.485-.069.744-.865.751-.776.008-1.552.006-2.328,0-.852-.006-1.259-.3-1.385-.825C-1435.665,545.209-1435.851,544.754-1436.052,544.152Zm-.336-6.857c0-.188-.017-.525,0-.861.032-.5-.13-.733-1.014-.449a28.466,28.466,0,0,1-5.124.972c-3.523.439-4.677,1.186-4.983,3.25-.27,1.822,1.482,3.264,4.13,3.293a7.36,7.36,0,0,0,5.153-1.654A5.512,5.512,0,0,0-1436.387,537.295Z" transform="translate(0 -21.265)" fill="#01ffb1"/>
    <path id="Path_8" data-name="Path 8" d="M-1087.594,532.421c1.106-1.518,2.08-2.858,3.06-4.2.64-.874,1.288-1.746,1.932-2.618a1,1,0,0,1,.683-.489,15.175,15.175,0,0,1,4.082,0c.656.092.413.5.2.793-1.613,2.219-3.237,4.435-4.852,6.653-.652.9-1.277,1.8-1.942,2.691a.872.872,0,0,0,0,1.157c2.408,3.319,4.791,6.646,7.194,9.967.651.9.456,1.133-1.085,1.12-3.9-.034-3.149.365-4.733-1.96-1.29-1.892-2.6-3.778-3.912-5.666-.106-.153-.058-.414-.419-.414-.328,0-.373.242-.485.4-1.624,2.265-3.269,4.524-4.844,6.8a2.052,2.052,0,0,1-2.089.85c-.8-.051-1.621,0-2.432-.013-1.008-.019-1.19-.2-.759-.8,1.033-1.425,2.1-2.842,3.134-4.266,1.424-1.952,2.827-3.91,4.264-5.858a.991.991,0,0,0,.015-1.338c-2.211-3.006-4.368-6.029-6.55-9.044-.713-.985-.536-1.182,1.173-1.171,4.224.027,3.007-.359,4.837,2.158C-1089.913,528.84-1088.849,530.546-1087.594,532.421Z" transform="translate(-257.67 -22.26)" fill="#01ffb1"/>
  </g>
</svg>
